<svg width="450" height="450" xmlns="http://www.w3.org/2000/svg">
<g>
  <title>Layer 1</title>
  <g stroke="null" id="svg_9">
   <path stroke="null" id="svg_4" d="m404.674162,347.651421c-99.599865,129.316547 -233.0528,95.790035 -285.519614,66.39991c-80.006449,-44.7383 -136.06539,-148.909963 -102.756582,-253.081625c9.796708,-30.696352 24.709475,-56.929759 43.32322,-78.700222c18.178336,1.41508 39.731094,1.41508 65.311387,-0.435409c152.393237,-10.885231 195.934161,119.737543 185.04893,152.393237c-5.551468,16.654404 -25.253736,21.988167 -43.214368,23.185542c1.741637,-2.394751 3.918683,-5.878025 6.966548,-11.102936c9.470151,-16.763256 10.667527,-48.874688 -18.83145,-68.2504c-28.410453,-18.504893 -59.106805,-7.0754 -74.890391,13.933096c-15.783585,20.899644 -9.579003,52.357962 -4.027536,66.291058c23.947509,60.086476 68.141547,75.652357 98.184785,84.687099c30.043238,9.034742 74.672686,7.728514 98.511342,-2.068194c23.729804,-9.90556 30.478647,-15.565881 35.050444,-10.558674c4.680649,5.007206 1.41508,10.776379 -3.156717,17.307518z" fill="#1e88e5"/>
   <path stroke="null" id="svg_5" d="m405.131342,347.651421c-37.880605,49.201245 -80.659563,74.781538 -122.023442,86.102179c-0.326557,0.108852 -0.653114,0.108852 -0.870818,0.217705c-23.947509,4.571797 -42.996663,0.870818 -63.678602,-3.156717c-33.635364,-6.531139 -80.006449,-43.649777 -91.218237,-110.811654c-9.579003,-57.800578 17.742927,-106.784118 60.848442,-136.500799c-2.83016,2.612455 -5.333763,5.442616 -7.619662,8.49048c-15.783585,20.899644 -9.579003,52.357962 -4.027536,66.291058c23.947509,60.086476 68.141547,75.652357 98.184785,84.687099c30.043238,9.034742 74.672686,7.728514 98.511342,-2.068194c23.729804,-9.90556 30.478647,-15.565881 35.050444,-10.558674c4.680649,5.007206 1.41508,10.776379 -3.156717,17.307518z" fill="#0d47a1"/>
   <path stroke="null" id="svg_6" d="m255.002233,8.358765c0.217705,2.83016 0.326557,5.878025 0.326557,8.817037c0,41.146174 -19.049155,77.720551 -48.765836,101.450355c-11.102936,-5.66032 -24.056361,-10.232117 -39.731094,-13.279982c-44.302891,-8.49048 -115.710008,11.973754 -144.773575,62.807784c-9.579003,16.654404 -13.606539,33.744217 -15.348176,49.527802c0.435409,-18.613745 3.592126,-37.6629 9.687856,-56.712055c35.812411,-111.682472 139.766369,-165.673219 238.604268,-152.610941z" fill="#00e5ff"/>
   <path stroke="null" id="svg_7" d="m412.402676,265.685631c-30.043238,30.260943 -68.2504,31.131761 -94.374954,29.716681c-26.233407,-1.306228 -39.07798,-8.92589 -51.051734,-16.327847c-12.082607,-7.51081 -5.224911,-14.912767 -4.027536,-16.545551c1.197375,-1.632785 4.136388,-4.462945 10.885231,-16.218994c3.156717,-5.551468 5.442616,-12.844573 5.878025,-20.790792c50.289768,-37.336343 86.64644,-92.415613 99.708718,-156.094215c31.784875,32.111432 46.806494,67.597286 52.140257,82.836609c9.579003,27.430783 16.872108,77.176289 -19.158007,113.424109z" fill="#00e676"/>
   <path stroke="null" id="svg_8" d="m379.420426,69.31606l0,0.108852c-13.062277,63.678602 -49.41895,118.757872 -99.708718,156.094215c0.326557,-4.571797 0,-9.470151 -1.088523,-14.368505c0,-0.217705 -0.108852,-0.435409 -0.108852,-0.544262c-2.721308,-16.00129 -10.776379,-36.24782 -24.165213,-51.922553c-13.279982,-15.674733 -27.430783,-29.716681 -47.786165,-40.057651c29.716681,-23.729804 48.765836,-60.304181 48.765836,-101.450355c0,-2.939012 -0.108852,-5.986877 -0.326557,-8.817037c4.354092,0.544262 8.599333,1.197375 12.953425,2.068194c50.180916,9.687856 86.102179,33.199955 111.464767,58.889101z" fill="#1de9b6"/>
  </g>
 </g>
</svg>