<svg width="241.2" height="241.2" xmlns="http://www.w3.org/2000/svg">

 <g>
  <title>background</title>
  <rect fill="none" id="canvas_background" height="402" width="582" y="-1" x="-1"/>
 </g>
 <g>
  <title>Layer 1</title>
  <rect stroke="#000" id="svg_5" height="141.999996" width="167.999996" y="45.643756" x="37.10001" stroke-width="1.5" fill="#333333"/>
  <g id="svg_1" fill="#ffffff">
   <path id="svg_2" d="m121,0c-67.1,-0.6 -121.6,53.9 -121,121c0.6,65.2 53.8,118.4 119,119c67.1,0.6 121.6,-53.9 121,-121c-0.6,-65.2 -53.8,-118.4 -119,-119zm-30.5,59c0.3,-0.9 1,-1.5 2.2,-1.2c2.2,0.5 19.9,4.3 19.9,4.3s36.8,-5.6 38.1,-5.9c1.1,-0.2 1.9,0.4 2.1,1.4c0.1,0.4 6.3,21.3 11.7,39.5l-86.2,0c5.6,-17.5 11.8,-37.1 12.2,-38.1zm85.9,103.3c-0.8,12.2 -10.7,22.1 -22.9,22.9c-14.3,0.9 -26.1,-10.4 -26.1,-24.5c0,-0.7 0,-1.4 0.1,-2.1c-2,-0.7 -4.2,-1 -6.4,-1c-2.3,0 -4.5,0.4 -6.7,1.1c0.1,0.7 0.1,1.3 0.1,2c0,14.1 -11.8,25.4 -26.1,24.5c-12.2,-0.8 -22.1,-10.7 -22.9,-22.9c-0.8,-14.2 10.5,-26.1 24.5,-26.1c10.2,0 19,6.3 22.7,15.2c2.7,-0.8 5.5,-1.3 8.4,-1.3c2.8,0 5.5,0.4 8.1,1.2c3.7,-8.9 12.4,-15.1 22.7,-15.1c14.1,0 25.4,11.9 24.5,26.1zm23.4,-34.3l-157.4,0c-0.2,0 -0.3,-0.3 -0.1,-0.4c5.2,-2.7 35.4,-17.6 79,-17.6c43.7,0 73.5,14.8 78.6,17.6c0.2,0.1 0.1,0.4 -0.1,0.4z"/>
   <circle id="svg_3" r="17.4" cy="160.8" cx="151.9"/>
   <circle id="svg_4" r="17.4" cy="160.8" cx="90.1"/>
  </g>
 </g>
</svg>